<svg width="52" height="48" viewBox="0 0 52 48" fill="none" xmlns="http://www.w3.org/2000/svg">
<path fill-rule="evenodd" clip-rule="evenodd" d="M32.24 6.24C32.24 9.68625 29.4463 12.48 26 12.48C22.5537 12.48 19.76 9.68625 19.76 6.24C19.76 2.79374 22.5537 0 26 0C29.4463 0 32.24 2.79374 32.24 6.24ZM15.6 30.16C19.0463 30.16 21.84 27.3663 21.84 23.92C21.84 20.4737 19.0463 17.68 15.6 17.68C12.1537 17.68 9.36 20.4737 9.36 23.92C9.36 27.3663 12.1537 30.16 15.6 30.16ZM6.24 47.84C9.68626 47.84 12.48 45.0463 12.48 41.6C12.48 38.1537 9.68626 35.36 6.24 35.36C2.79374 35.36 0 38.1537 0 41.6C0 45.0463 2.79374 47.84 6.24 47.84ZM26 47.84C29.4463 47.84 32.24 45.0463 32.24 41.6C32.24 38.1537 29.4463 35.36 26 35.36C22.5537 35.36 19.76 38.1537 19.76 41.6C19.76 45.0463 22.5537 47.84 26 47.84ZM42.64 23.92C42.64 27.3663 39.8463 30.16 36.4 30.16C32.9537 30.16 30.16 27.3663 30.16 23.92C30.16 20.4737 32.9537 17.68 36.4 17.68C39.8463 17.68 42.64 20.4737 42.64 23.92ZM45.76 47.84C49.2063 47.84 52 45.0463 52 41.6C52 38.1537 49.2063 35.36 45.76 35.36C42.3137 35.36 39.52 38.1537 39.52 41.6C39.52 45.0463 42.3137 47.84 45.76 47.84Z" fill="url(#paint0_linear_6255_9491)"/>
<defs>
<linearGradient id="paint0_linear_6255_9491" x1="13.5417" y1="-7.42574e-09" x2="33.2845" y2="49.0504" gradientUnits="userSpaceOnUse">
<stop stop-color="#BA85FF"/>
<stop offset="1" stop-color="#6533E4"/>
</linearGradient>
</defs>
</svg>
